<svg width="300.000000" height="88.000000" viewBox="0 0 300 88" fill="none" xmlns="http://www.w3.org/2000/svg" xmlns:xlink="http://www.w3.org/1999/xlink">
    <desc>
        Created with Pixso.
    </desc>
    <defs>
        <clipPath id="clip13_103">
            <rect id="画板 1" width="64.000000" height="64.000000" transform="translate(4.000000 8.000000)" fill="white" fill-opacity="0"/>
        </clipPath>
        <clipPath id="clip13_80">
            <rect id="画板 1" width="300.000000" height="88.000000" fill="white" fill-opacity="0"/>
        </clipPath>
    </defs>
    <g clip-path="url(#clip13_80)">
        <g clip-path="url(#clip13_103)">
            <path id="矢量 6" d="M55.36 31.17C39.39 31.55 26.57 31.9 16.91 32.24C16.74 34.67 16.46 40.68 16.05 50.26C15.7 57.13 15.44 61.81 15.28 64.29C20.65 64.52 34.72 64.94 57.48 65.55C57.24 63.5 56.9 57.79 56.47 48.44L55.36 31.17ZM60.78 70.27C59.67 70.38 51.64 70.66 36.69 71.1C21.66 71.5 13.47 71.77 12.14 71.94C11.22 72.1 10.28 71.93 9.34 71.43C8.09 70.94 7.34 69.7 7.09 67.7C6.93 66.48 6.43 57.26 5.59 40.05C4.83 22.94 4.32 13.66 4.05 12.23C3.8 11.07 4.4 10.07 5.83 9.23C7.25 8.41 9.01 8 11.12 8C13.22 8 14.94 8.41 16.29 9.23C17.63 10.07 18.21 11.07 18.05 12.23C17.8 15.06 17.55 19.23 17.31 24.76L62.77 26.1L65.17 26.61L66.07 27.01C67.56 27.67 68.19 28.53 67.94 29.59C67.7 30.59 67.24 36.87 66.56 48.44C65.88 60.01 65.46 66.21 65.3 67.03L64.93 68.21C64.85 68.64 64.51 69.05 63.91 69.44C63.24 69.89 62.48 70.11 61.64 70.11L60.78 70.27Z" fill="#1677FF" fill-opacity="1.000000" fill-rule="nonzero"/>
            <rect id="矩形 1" x="42.000000" y="43.000000" rx="2.000000" width="8.000000" height="10.000000" fill="#1677FF" fill-opacity="1.000000"/>
            <rect id="矩形 1" x="22.000015" y="43.000000" rx="2.000000" width="8.000000" height="10.000000" fill="#1677FF" fill-opacity="1.000000"/>
        </g>
        <path id="angbu" d="M252.5 32.55Q251.99 31.9 250.69 31.41L249.24 31.11L223.62 29.67Q223.98 22.69 224.27 20.39Q224.33 19.41 224.03 18.55Q223.65 17.46 222.68 16.58Q222.16 16.1 221.56 15.76Q220.18 14.99 218.36 14.99Q216.79 14.99 215.48 15.57Q214.64 15.95 213.89 16.58Q212.66 17.67 212.34 18.99Q212.17 19.66 212.24 20.39Q212.66 24.13 213.54 43Q214.47 62.44 214.76 65.46Q215.2 69.6 217.12 70.46Q217.4 70.59 217.71 70.65Q218.29 70.79 218.73 70.72Q220.73 70.43 233.34 69.71Q246.36 69.06 247.87 68.83L248.89 68.55Q249.11 68.53 249.31 68.48Q249.86 68.33 250.33 67.9Q250.77 67.55 250.97 67.09Q251.1 66.8 251.12 66.46Q251.31 66.05 251.41 65.63Q251.51 65.23 251.55 64.81Q251.92 62.58 252.57 50.13Q253.22 37.3 253.5 35.23Q253.58 34.64 253.45 34.11Q253.24 33.27 252.5 32.55ZM115.03 31.41Q113.39 30.11 110.72 30.11L94.88 29.18Q83.28 28.6 81.41 28.39Q80.82 28.3 80.28 28.44Q79.4 28.68 78.67 29.53Q78.66 29.55 78.64 29.57Q77.53 30.93 77.53 33.2Q77.53 35.43 78.6 36.86Q78.64 36.9 78.67 36.95Q79.4 37.86 80.3 38.07Q80.83 38.2 81.41 38.09Q83.44 37.81 105.02 36.67Q105.32 39.25 105.67 45.58Q85.05 44.23 84.15 44.21Q83.35 44.07 82.93 44.07L82.86 44.07Q82.59 43.98 82.34 44Q82.17 44.01 82 44.07Q79.69 44.23 78.39 45.3Q77.54 45.92 77.32 46.72Q77.2 47.2 77.3 47.74Q77.67 49.48 78.18 56.46Q78.74 64.46 78.97 66.32Q78.97 67.9 79.62 69.13Q79.72 69.31 79.83 69.49Q79.97 69.78 80.41 70.21Q81.03 70.79 81.74 70.93Q82.17 71.01 82.65 70.93Q83 70.93 83.58 70.79Q86.53 70.5 97.97 69.85Q109.28 69.27 110.65 69.13L111 69.06Q112.09 68.92 112.81 68.34Q113.3 68.04 113.55 67.6Q113.78 67.2 113.81 66.69Q114.25 65.53 114.32 64.74Q114.67 62.16 115.39 49.83Q116.11 37.46 116.48 34.79Q116.57 33.94 116.33 33.21Q116.01 32.25 115.11 31.48Q115.07 31.45 115.03 31.41ZM156.95 30.53Q155.86 30.04 154.27 30.04L132.25 28.67Q131.46 28.39 130.16 28.39L129.44 28.39Q129.16 28.39 128.58 28.53Q127.04 28.82 126.03 29.71Q125.81 29.9 125.62 30.11Q124.92 30.86 124.73 31.72Q124.61 32.25 124.69 32.83Q125.04 35.37 125.76 49.83Q126.48 64.16 126.85 66.6Q127.2 69.59 128.74 70.45Q129.36 70.79 130.16 70.79Q130.91 70.79 131.49 70.47Q133.03 69.64 133.39 66.6Q133.69 64.3 134.27 53.79L135.2 37.39Q140.02 37.02 149.09 36.58Q149.32 39.11 150.04 52.72Q150.6 64.09 150.97 66.46Q151.39 69.38 152.92 70.19Q153.51 70.5 154.27 70.5Q155.06 70.5 155.66 70.17Q157.16 69.34 157.53 66.46Q157.88 64.16 158.6 50.55Q159.32 36.81 159.6 34.43Q159.69 33.71 159.5 33.06Q159.22 32.1 158.32 31.32Q157.88 30.9 156.95 30.53ZM203.05 31.06Q201.61 30.18 199.63 30.18L174.51 28.67Q173.65 28.39 172.35 28.39L171.28 28.46Q168.18 28.83 167.35 30.4Q166.92 31.21 167.09 32.34Q167.37 34.28 168.02 45.37Q168.67 56.25 169.04 58.25Q169.55 60.8 171 61.55Q171.59 61.86 172.35 61.86Q172.75 61.86 173.38 61.74Q174.01 61.76 195.25 60.34Q195.68 71.47 196.06 75.95Q192.63 75.73 185.88 75.32Q178.83 74.9 175.37 74.67Q175.51 73.53 175.65 73.09Q175.75 72.73 175.68 72.4Q175.53 71.77 174.72 71.3Q173.51 70.5 171.21 70.5Q168.81 70.5 167.53 71.23Q166.71 71.75 166.59 72.41Q166.54 72.73 166.65 73.09Q166.88 73.88 167.46 77.55Q167.88 81.16 168.16 81.81Q168.5 82.74 169.16 83.24Q169.92 83.81 171.12 83.81L171.42 83.81Q171.53 83.83 171.63 83.85Q171.95 83.88 172.28 83.81Q174.14 83.53 185.88 82.81Q196.49 82.24 198.9 82.01Q199.25 82.09 199.63 82.09Q200.25 82.09 200.76 81.85Q201.62 81.44 202.16 80.36Q202.23 80.24 202.29 80.12Q202.39 79.91 202.44 79.69Q202.8 78.66 202.95 77.2Q203.3 74.09 204.16 56.25Q205.04 38.32 205.32 35.23Q205.38 34.36 205.14 33.6Q204.78 32.51 203.81 31.62Q203.45 31.31 203.05 31.06ZM278.7 70.5Q289 69.85 290 69.71L290.65 69.49Q291.16 69.41 291.88 68.99Q292.44 68.64 292.69 68.13Q292.85 67.81 292.88 67.41Q293.09 66.83 293.39 65.39Q293.74 62.95 294.46 49.25Q295.18 35.44 295.47 32.92Q295.57 32.09 295.33 31.37Q295.02 30.47 294.18 29.74Q294.06 29.65 293.94 29.56Q292.4 28.46 290.07 28.46Q287.61 28.46 285.98 29.62Q285.9 29.68 285.81 29.74Q284.83 30.52 284.54 31.5Q284.34 32.16 284.46 32.92Q284.81 35.44 285.46 47.46Q286.18 60.64 286.47 63.74L270.49 62.65Q270.7 59.69 271.35 46.02Q271.93 35.3 272.21 32.92Q272.31 32.09 272.07 31.37Q271.77 30.47 270.93 29.74Q270.62 29.48 270.29 29.28Q268.86 28.39 266.88 28.39Q264.6 28.39 263.03 29.44Q262.87 29.55 262.72 29.67Q261.67 30.53 261.4 31.59Q261.23 32.22 261.35 32.92Q261.7 35.51 262.42 50.13Q263.14 64.67 263.51 67.18Q264 70.21 265.3 71Q265.65 71.26 266.05 71.37Q266.54 71.51 267.09 71.44Q268.83 71.07 278.7 70.5ZM194.88 53.86Q179.84 53.07 176.16 52.79L177.09 37.53L193.95 36.51Q194.37 41.83 194.88 53.86ZM223.18 38.6Q226.13 38.39 232.98 38.02L243.2 37.53Q243.41 40.48 243.99 50.27Q244.5 59.83 244.78 62.79Q241.83 62.58 233.48 62.16L222.03 61.58Q222.24 58.41 222.61 51.13L223.18 38.6ZM106.04 51.78Q106.69 61.72 106.83 63.02L86.6 61.86L86.88 57.39Q87.02 54.3 87.18 52.93Q90.41 52.65 97.04 52.28L106.04 51.78Z" fill="#000000" fill-opacity="1.000000" fill-rule="evenodd"/>
    </g>
</svg>
