<svg width="64.000000" height="64.000000" viewBox="0 0 64 64" fill="none" xmlns="http://www.w3.org/2000/svg" xmlns:xlink="http://www.w3.org/1999/xlink">
    <desc>
        Created with Pixso.
    </desc>
    <defs>
        <clipPath id="clip13_79">
            <rect id="画板 1" width="64.000000" height="64.000000" fill="white" fill-opacity="0"/>
        </clipPath>
    </defs>
    <g clip-path="url(#clip13_79)">
        <path id="矢量 6" d="M51.36 23.17C35.39 23.55 22.57 23.9 12.91 24.24C12.74 26.67 12.46 32.68 12.05 42.26C11.7 49.13 11.44 53.81 11.28 56.29C16.65 56.52 30.72 56.94 53.48 57.55C53.24 55.5 52.9 49.79 52.47 40.44L51.36 23.17ZM56.78 62.27C55.67 62.38 47.64 62.66 32.69 63.1C17.66 63.5 9.47 63.77 8.14 63.94C7.22 64.1 6.28 63.93 5.34 63.43C4.09 62.94 3.34 61.7 3.09 59.7C2.93 58.48 2.43 49.26 1.59 32.05C0.83 14.94 0.32 5.66 0.05 4.23C-0.2 3.07 0.4 2.07 1.83 1.23C3.25 0.41 5.01 0 7.12 0C9.22 0 10.94 0.41 12.29 1.23C13.63 2.07 14.21 3.07 14.05 4.23C13.8 7.06 13.55 11.23 13.31 16.76L58.77 18.1L61.17 18.61L62.07 19.01C63.56 19.67 64.19 20.53 63.94 21.59C63.7 22.59 63.24 28.87 62.56 40.44C61.88 52.01 61.46 58.21 61.3 59.03L60.93 60.21C60.85 60.64 60.51 61.05 59.91 61.44C59.24 61.89 58.48 62.11 57.64 62.11L56.78 62.27Z" fill="#1677FF" fill-opacity="1.000000" fill-rule="nonzero"/>
        <rect id="矩形 1" x="38.000000" y="35.000000" rx="2.000000" width="8.000000" height="10.000000" fill="#1677FF" fill-opacity="1.000000"/>
        <rect id="矩形 1" x="18.000015" y="35.000000" rx="2.000000" width="8.000000" height="10.000000" fill="#1677FF" fill-opacity="1.000000"/>
    </g>
</svg>
